HIERARCHY
ROOT hip
{
	OFFSET 0.000000 0.000000 0.000000 
	CHANNELS 6 Xposition Yposition Zposition Xrotation Zrotation Yrotation
	JOINT abdomen
	{
		OFFSET 0.000000 3.402643 0.000000 
		CHANNELS 3 Xrotation Zrotation Yrotation
		JOINT chest
		{
			OFFSET 0.000000 8.438565 -0.680529 
			CHANNELS 3 Xrotation Zrotation Yrotation
			JOINT neck
			{
				OFFSET 0.000000 10.207942 -0.272212 
				CHANNELS 3 Xrotation Zrotation Yrotation
				JOINT head
				{
					OFFSET 0.000000 3.130431 0.000000 
					CHANNELS 3 Xrotation Zrotation Yrotation
					End Site
					{
						OFFSET 0.000000 3.130435 0.000000 
					}
				}
			}
			JOINT lCollar
			{
				OFFSET 3.470700 6.669187 -0.816635 
				CHANNELS 3 Yrotation Zrotation Xrotation
				JOINT lShldr
				{
					OFFSET 3.198488 0.000000 0.000000 
					CHANNELS 3 Zrotation Yrotation Xrotation
					JOINT lForeArm
					{
						OFFSET 10.139888 0.000000 0.000000 
						CHANNELS 3 Yrotation Zrotation Xrotation
						JOINT lHand
						{
							OFFSET 8.370511 0.000000 0.000000 
							CHANNELS 3 Zrotation Yrotation Xrotation
							End Site
							{
								OFFSET 4.083176 0.000000 0.000000 
							}
						}
					}
				}
			}
			JOINT rCollar
			{
				OFFSET -3.470700 6.669187 -0.816635 
				CHANNELS 3 Yrotation Zrotation Xrotation
				JOINT rShldr
				{
					OFFSET -3.198488 0.000000 0.000000 
					CHANNELS 3 Zrotation Yrotation Xrotation
					JOINT rForeArm
					{
						OFFSET -10.139888 0.000000 0.000000 
						CHANNELS 3 Yrotation Zrotation Xrotation
						JOINT rHand
						{
							OFFSET -8.370511 0.000000 0.000000 
							CHANNELS 3 Zrotation Yrotation Xrotation
							End Site
							{
								OFFSET -4.083176 0.000000 0.000000 
							}
						}
					}
				}
			}
		}
	}
	JOINT lThigh
	{
		OFFSET 5.308129 -1.633274 1.361059 
		CHANNELS 3 Xrotation Zrotation Yrotation
		JOINT lShin
		{
			OFFSET -2.041588 -20.007561 0.000000 
			CHANNELS 3 Xrotation Zrotation Yrotation
			JOINT lFoot
			{
				OFFSET 0.000000 -19.190928 -1.224953 
				CHANNELS 3 Xrotation Yrotation Zrotation
				End Site
				{
					OFFSET 0.000000 -2.449906 4.627600 
				}
			}
		}
	}
	JOINT rThigh
	{
		OFFSET -5.308129 -1.633274 1.361059 
		CHANNELS 3 Xrotation Zrotation Yrotation
		JOINT rShin
		{
			OFFSET 2.041588 -20.007561 0.000000 
			CHANNELS 3 Xrotation Zrotation Yrotation
			JOINT rFoot
			{
				OFFSET 0.000000 -19.190928 -1.224953 
				CHANNELS 3 Xrotation Yrotation Zrotation
				End Site
				{
					OFFSET 0.000000 -2.449906 4.627600 
				}
			}
		}
	}
}
MOTION
Frames: 10
Frame Time: 0.016667
0.327502 52.758488 1.323947 -10.543368 2.032245 5.316075 23.076584 1.009623 -1.435897 3.345897 0.995175 -3.691713 -2.225955 4.835071 -0.355856 5.389577 -3.340877 9.645396 -17.592564 -9.940316 -0.515656 -65.024086 14.796805 -25.883224 -24.443930 -5.000000 26.575050 -14.196643 1.165299 9.205112 14.654357 11.978511 -0.626533 65.813080 -7.512461 -18.400465 20.595741 5.000000 14.473709 11.144118 -24.225592 3.900010 19.003159 9.570202 6.277376 6.846255 -4.604823 -0.706259 -13.962587 1.811466 -2.694680 24.089409 -7.861288 -9.282473 -1.773900 3.428979 -0.035725 -19.287931 -17.201689 1.484413 
0.324088 52.760838 1.328551 -10.532002 2.041904 5.335595 23.076633 0.996823 -1.430638 3.395983 0.965905 -3.681949 -2.354038 4.881888 -0.373605 5.349559 -3.302748 9.605834 -17.642206 -9.849586 -0.520297 -65.064568 14.787979 -25.910450 -24.349874 -5.000000 26.528622 -14.204446 1.126003 9.285542 14.549051 11.985809 -0.636284 65.798485 -7.494962 -18.440428 20.475327 5.000000 14.458811 11.118132 -24.269724 3.974926 18.981155 9.569257 6.267180 6.846616 -4.585520 -0.734701 -13.786469 1.811730 -2.750538 24.109776 -7.861457 -9.272480 -1.782554 3.468821 -0.027951 -19.326092 -17.264414 1.443287 
0.322049 52.761150 1.332494 -10.530958 2.041806 5.364874 23.096697 1.007894 -1.404899 3.486127 0.917129 -3.652655 -2.472245 4.909393 -0.387607 5.274220 -3.197567 9.526190 -17.739054 -9.761802 -0.515764 -65.114342 14.735331 -25.947876 -24.217390 -5.000000 26.481321 -14.161469 1.114624 9.508907 14.364175 12.044353 -0.639316 65.747910 -7.418357 -18.443813 20.327291 5.000000 14.418705 11.036910 -24.362103 4.075754 18.998018 9.597831 6.214807 6.816280 -4.614027 -0.713312 -13.551314 1.821085 -2.769232 24.094656 -7.840683 -9.226972 -1.775703 3.471593 -0.046931 -19.360815 -17.334679 1.405735 
0.320013 52.761440 1.336435 -10.530831 2.031985 5.394151 23.106987 1.019324 -1.379003 3.576403 0.868358 -3.623212 -2.591299 4.935437 -0.411229 5.187218 -3.101963 9.447124 -17.844082 -9.677005 -0.502067 -65.166130 14.686730 -25.996349 -24.096142 -5.000000 26.420359 -14.117182 1.112260 9.730069 14.177160 12.095535 -0.632586 65.706642 -7.338673 -18.448591 20.180353 5.000000 14.369297 10.948221 -24.461191 4.169681 18.986536 9.617248 6.169626 6.809074 -4.607574 -0.703313 -13.314588 1.864518 -2.737338 24.113993 -7.840716 -9.187023 -1.773194 3.505724 -0.048052 -19.374222 -17.377748 1.367381 
0.315187 52.761440 1.331724 -10.497725 2.061052 5.423780 23.106928 0.962037 -1.422850 3.592554 0.936635 -3.681951 -2.601134 4.945092 -0.412690 5.115764 -3.169125 9.477442 -17.807053 -9.722781 -0.513749 -65.141304 14.609826 -25.931608 -23.978994 -5.000000 26.393312 -14.166965 1.236261 9.780973 14.207232 12.163798 -0.636116 65.605293 -7.341110 -18.459831 20.067953 5.000000 14.306661 10.907284 -24.430485 4.363298 18.936569 9.606398 6.166373 6.820655 -4.607140 -0.723554 -13.707091 1.828696 -2.906410 24.067635 -7.831513 -9.254065 -1.754681 3.439208 -0.024974 -19.329025 -17.349897 1.423336 
0.310360 52.761440 1.327014 -10.455179 2.090150 5.443303 23.116646 0.904751 -1.466696 3.609230 0.995160 -3.730772 -2.610970 4.954747 -0.414150 5.045305 -3.226552 9.516982 -17.768528 -9.781301 -0.516770 -65.118553 14.536992 -25.878038 -23.875286 -5.000000 26.363295 -14.206648 1.361075 9.841339 14.246963 12.222310 -0.639140 65.494637 -7.346706 -18.471113 19.951899 5.000000 14.252348 10.871845 -24.388491 4.542516 18.883980 9.599405 6.142999 6.838572 -4.615933 -0.715701 -14.088679 1.795943 -3.074567 24.035606 -7.840434 -9.316866 -1.752761 3.417893 -0.034015 -19.282152 -17.267542 1.536751 
0.309143 52.760178 1.323442 -10.423882 2.099770 5.472580 23.135763 0.902549 -1.488760 3.577537 1.034155 -3.789357 -2.561305 4.956209 -0.404530 5.039897 -3.255352 9.526729 -17.768076 -9.911059 -0.514147 -65.034302 14.498021 -25.816048 -23.753641 -5.000000 26.319624 -14.265913 1.426900 9.896540 14.277607 12.339335 -0.647274 65.372078 -7.405403 -18.512886 19.877064 5.000000 14.150471 10.814887 -24.423138 4.723939 18.832771 9.568973 6.125305 6.850815 -4.597618 -0.715701 -14.292319 1.852250 -3.010549 24.005899 -7.840286 -9.356816 -1.743593 3.389679 -0.032420 -19.262243 -17.280226 1.543516 
0.311539 52.757660 1.321013 -10.413980 2.089946 5.501857 23.174589 0.911690 -1.485330 3.488941 1.034124 -3.838179 -2.452913 4.938360 -0.391989 5.079012 -3.265263 9.497478 -17.818893 -10.125608 -0.525212 -64.898148 14.479670 -25.754753 -23.609369 -5.000000 26.282913 -14.328065 1.421442 9.989646 14.318486 12.495367 -0.655359 65.236336 -7.513380 -18.574757 19.855352 5.000000 13.997255 10.752448 -24.514349 4.891333 18.827677 9.599547 6.121805 6.838223 -4.615712 -0.735190 -14.361488 1.854316 -2.800603 23.988880 -7.831177 -9.373921 -1.745333 3.420956 -0.053005 -19.281778 -17.281372 1.573272 
0.313936 52.755135 1.318585 -10.394320 2.080122 5.531134 23.213127 0.942373 -1.483881 3.410110 1.034092 -3.877235 -2.343695 4.921970 -0.368990 5.119747 -3.265542 9.468231 -17.869755 -10.340155 -0.536270 -64.752853 14.465361 -25.691254 -23.478596 -5.000000 26.223953 -14.388612 1.425504 10.080589 14.369158 12.651398 -0.663439 65.091385 -7.624830 -18.634920 19.825035 5.000000 13.835728 10.678786 -24.604551 5.066837 18.805948 9.618731 6.106378 6.827078 -4.614759 -0.734387 -14.434847 1.744533 -2.638776 23.987202 -7.840327 -9.416732 -1.755673 3.471915 -0.016305 -19.308775 -17.259548 1.570404 
0.311112 52.754093 1.312565 -10.395999 2.041039 5.589687 23.261547 0.982362 -1.478728 3.391811 1.014597 -3.857709 -2.255219 4.962053 -0.365207 5.116968 -3.227103 9.458484 -17.930237 -10.535200 -0.548102 -64.641296 14.356378 -25.598352 -23.417320 -5.000000 26.088348 -14.410835 1.535996 10.174088 14.258149 12.980559 -0.692009 64.781868 -7.603195 -18.565001 19.789650 5.000000 13.673816 10.671314 -24.623442 5.149425 18.766874 9.667596 6.037485 6.809679 -4.606306 -0.713008 -14.336087 1.770030 -2.603960 23.978752 -7.772248 -9.387033 -1.746923 3.464663 -0.034935 -19.347443 -17.321688 1.526694 
